<?xml version="1.0" encoding="UTF-8"?>
<svg version="1.1" xmlns="http://www.w3.org/2000/svg" width="350" height="233">
<path d="M0 0 C0.89483093 -0.02244278 1.78966187 -0.04488556 2.71160889 -0.06800842 C3.67206116 -0.07964523 4.63251343 -0.09128204 5.62207031 -0.10327148 C6.6184552 -0.1170433 7.61484009 -0.13081512 8.64141846 -0.14500427 C10.74949607 -0.16826407 12.85764702 -0.1855357 14.96582031 -0.19726562 C18.17553503 -0.22415862 21.38193714 -0.29907 24.59082031 -0.37475586 C26.64288155 -0.39141721 28.69496876 -0.40518225 30.74707031 -0.41577148 C32.17560333 -0.46055382 32.17560333 -0.46055382 33.63299561 -0.50624084 C40.01098208 -0.46458496 43.20519912 0.98665149 47.72590637 5.4992218 C48.29492172 6.10606308 48.86393707 6.71290436 49.45019531 7.33813477 C50.64258881 8.48317171 51.83859908 9.62446856 53.04003906 10.76000977 C54.15849077 11.86679743 55.27440643 12.97615409 56.38769531 14.08813477 C56.96326172 14.65145508 57.53882812 15.21477539 58.13183594 15.79516602 C64.00620267 21.64877527 63.60693984 26.27056248 63.63574219 34.16821289 C63.63566162 34.86245361 63.63558105 35.55669434 63.63549805 36.27197266 C63.63769098 38.39644207 63.65587872 40.52039737 63.67480469 42.64477539 C63.67773759 43.99177882 63.67972308 45.33878472 63.68066406 46.68579102 C63.68477295 47.91305908 63.68888184 49.14032715 63.69311523 50.40478516 C63.45019531 53.33813477 63.45019531 53.33813477 61.45019531 55.33813477 C56.89463976 54.78257921 56.89463976 54.78257921 55.45019531 53.33813477 C55.36281886 51.48443865 55.34321378 49.62745936 55.35253906 47.77172852 C55.35737305 46.08466797 55.35737305 46.08466797 55.36230469 44.36352539 C55.37487305 42.58751953 55.37487305 42.58751953 55.38769531 40.77563477 C55.39220703 39.58776367 55.39671875 38.39989258 55.40136719 37.17602539 C55.41319856 34.23001251 55.42968245 31.28409796 55.45019531 28.33813477 C54.02646606 28.38127808 54.02646606 28.38127808 52.57397461 28.42529297 C41.96479746 28.74678319 41.96479746 28.74678319 37.45019531 25.33813477 C34.76277606 19.96329627 36.45019531 13.34738689 36.45019531 7.33813477 C23.58019531 7.66813477 10.71019531 7.99813477 -2.54980469 8.33813477 C-2.87980469 32.42813477 -3.20980469 56.51813477 -3.54980469 81.33813477 C8.66019531 81.33813477 20.87019531 81.33813477 33.45019531 81.33813477 C34.11019531 82.98813477 34.77019531 84.63813477 35.45019531 86.33813477 C34.46337891 87.81323242 34.46337891 87.81323242 32.45019531 89.33813477 C29.63782989 89.63660366 27.05159154 89.75851945 24.23925781 89.73657227 C23.43410736 89.73944244 22.62895691 89.74231262 21.79940796 89.74526978 C20.09640805 89.74731063 18.39338471 89.74177923 16.69042969 89.72924805 C14.09158429 89.71323574 11.49430391 89.72907352 8.89550781 89.74829102 C7.23925439 89.74630777 5.58300195 89.7424624 3.92675781 89.73657227 C3.15264557 89.74264496 2.37853333 89.74871765 1.58096313 89.75497437 C-2.97129544 89.69606109 -5.95264956 89.19255407 -9.54980469 86.33813477 C-11.93183781 82.76508508 -11.8392278 80.2246118 -11.82446289 76.1003418 C-11.82957382 75.36666382 -11.83468475 74.63298584 -11.83995056 73.8770752 C-11.85385859 71.44994972 -11.8528887 69.02310788 -11.85058594 66.59594727 C-11.85447266 64.90827326 -11.85880729 63.22060023 -11.86357117 61.53292847 C-11.87103631 57.9938439 -11.87074032 54.45485909 -11.86547852 50.91577148 C-11.85968832 46.38397658 -11.8766024 41.85259097 -11.89982319 37.32086372 C-11.91456837 33.83439757 -11.91543108 30.34802975 -11.91231346 26.86153793 C-11.91282644 25.19101019 -11.91805981 23.5204769 -11.92812538 21.8499794 C-11.94048572 19.51128973 -11.93370071 17.17339411 -11.92211914 14.8347168 C-11.92976288 14.14675018 -11.93740662 13.45878357 -11.94528198 12.74996948 C-11.89833 8.45249808 -11.25078632 5.71131267 -8.54980469 2.33813477 C-5.71569311 0.41505904 -3.38459466 0.07195947 0 0 Z M43.45019531 11.33813477 C43.45019531 14.30813477 43.45019531 17.27813477 43.45019531 20.33813477 C46.42019531 20.33813477 49.39019531 20.33813477 52.45019531 20.33813477 C51.52207031 19.22438477 50.59394531 18.11063477 49.63769531 16.96313477 C49.115625 16.33665039 48.59355469 15.71016602 48.05566406 15.06469727 C46.36793792 13.11602997 46.36793792 13.11602997 43.45019531 11.33813477 Z " fill="#045F35" transform="translate(64.5498046875,69.661865234375)"/>
<path d="M0 0 C1.125 1.5625 1.125 1.5625 2.125 4.5625 C2.6509375 3.139375 2.6509375 3.139375 3.1875 1.6875 C5.125 -1.4375 5.125 -1.4375 8.1875 -2.875 C13.01443457 -3.56456208 17.32628174 -3.15199729 22.125 -2.4375 C22.20615993 0.62553578 22.26557409 3.68640815 22.3125 6.75 C22.33763672 7.61431641 22.36277344 8.47863281 22.38867188 9.36914062 C22.44521387 14.28829386 22.3303242 17.56554609 19.125 21.5625 C16.63459058 24.05290942 15.69345643 23.88641014 12.25 23.9375 C8.67303066 23.87547163 7.47732625 23.81416161 4.5 21.6875 C3.125 19.5625 3.125 19.5625 3.125 17.5625 C4.445 17.2325 5.765 16.9025 7.125 16.5625 C6.485625 15.964375 5.84625 15.36625 5.1875 14.75 C3.125 12.5625 3.125 12.5625 2.125 9.5625 C1.67125 10.34625 1.2175 11.13 0.75 11.9375 C-0.875 14.5625 -0.875 14.5625 -2.875 16.5625 C-6.85873328 17.29578896 -11.1043771 17.66083341 -14.64453125 15.46484375 C-17.06616597 12.84780335 -17.88078449 10.53010688 -18.5 7.0625 C-17.66567613 2.39028635 -16.29534139 0.82737133 -12.875 -2.4375 C-8.71445217 -4.65645884 -3.5554238 -2.72582491 0 0 Z M-9.875 2.5625 C-12.20891203 5.34364056 -12.20891203 5.34364056 -11.5 8.25 C-11.29375 9.013125 -11.0875 9.77625 -10.875 10.5625 C-9.225 10.8925 -7.575 11.2225 -5.875 11.5625 C-4.66202351 9.2818293 -4.66202351 9.2818293 -3.875 6.5625 C-4.64103959 4.2767289 -4.64103959 4.2767289 -5.875 2.5625 C-7.195 2.5625 -8.515 2.5625 -9.875 2.5625 Z M10.125 2.5625 C8.76881501 3.68784105 8.76881501 3.68784105 9.0625 6.625 C9.083125 7.594375 9.10375 8.56375 9.125 9.5625 C11.105 10.5525 11.105 10.5525 13.125 11.5625 C14.84315438 9.31082154 14.84315438 9.31082154 16.125 6.5625 C15.43359649 4.25962207 15.43359649 4.25962207 14.125 2.5625 C12.805 2.5625 11.485 2.5625 10.125 2.5625 Z M9.125 17.5625 C11.6 18.0575 11.6 18.0575 14.125 18.5625 C14.455 17.5725 14.785 16.5825 15.125 15.5625 C12.66221199 15.5625 11.27275881 16.41702863 9.125 17.5625 Z " fill="#09090A" transform="translate(292.875,129.4375)"/>
<path d="M0 0 C3.0625 0.1875 3.0625 0.1875 5.0625 2.1875 C5.2578125 5.0078125 5.2578125 5.0078125 5.1875 8.3125 C5.16945313 9.40820312 5.15140625 10.50390625 5.1328125 11.6328125 C5.10960938 12.47585937 5.08640625 13.31890625 5.0625 14.1875 C5.90554687 14.16429687 6.74859375 14.14109375 7.6171875 14.1171875 C9.26074219 14.09011719 9.26074219 14.09011719 10.9375 14.0625 C12.57332031 14.02769531 12.57332031 14.02769531 14.2421875 13.9921875 C17.0625 14.1875 17.0625 14.1875 19.0625 16.1875 C18.6875 19.3125 18.6875 19.3125 18.0625 22.1875 C15.04759443 23.19246852 13.02068308 23.29085303 9.875 23.25 C8.97394531 23.24097656 8.07289062 23.23195312 7.14453125 23.22265625 C6.45746094 23.21105469 5.77039063 23.19945312 5.0625 23.1875 C5.08570312 23.95835937 5.10890625 24.72921875 5.1328125 25.5234375 C5.15988281 27.02777344 5.15988281 27.02777344 5.1875 28.5625 C5.21070312 29.56023437 5.23390625 30.55796875 5.2578125 31.5859375 C5.0625 34.1875 5.0625 34.1875 3.0625 36.1875 C0.5625 36.4375 0.5625 36.4375 -1.9375 36.1875 C-3.9375 34.1875 -3.9375 34.1875 -4.1328125 31.5859375 C-4.10960938 30.58820313 -4.08640625 29.59046875 -4.0625 28.5625 C-4.04445313 27.55960938 -4.02640625 26.55671875 -4.0078125 25.5234375 C-3.98460938 24.75257813 -3.96140625 23.98171875 -3.9375 23.1875 C-5.32775391 23.09662109 -5.32775391 23.09662109 -6.74609375 23.00390625 C-7.94363281 22.92011719 -9.14117187 22.83632812 -10.375 22.75 C-11.56996094 22.66878906 -12.76492187 22.58757812 -13.99609375 22.50390625 C-16.9375 22.1875 -16.9375 22.1875 -17.9375 21.1875 C-18.0625 18.1875 -18.0625 18.1875 -17.9375 15.1875 C-16.9375 14.1875 -16.9375 14.1875 -13.99609375 14.08984375 C-12.20365234 14.10724609 -12.20365234 14.10724609 -10.375 14.125 C-8.57869141 14.13853516 -8.57869141 14.13853516 -6.74609375 14.15234375 C-5.81925781 14.16394531 -4.89242187 14.17554688 -3.9375 14.1875 C-3.94910156 13.26066406 -3.96070312 12.33382812 -3.97265625 11.37890625 C-3.98167969 10.18136719 -3.99070312 8.98382813 -4 7.75 C-4.01160156 6.55503906 -4.02320312 5.36007813 -4.03515625 4.12890625 C-3.90635264 0.24934166 -3.90635264 0.24934166 0 0 Z " fill="#056136" transform="translate(108.9375,118.8125)"/>
<path d="M0 0 C2.33322797 0.02217429 4.666799 0.02485066 7 0 C7.05421223 3.04190863 7.09377548 6.08283999 7.125 9.125 C7.14175781 9.9809375 7.15851563 10.836875 7.17578125 11.71875 C7.26018398 22.69110516 7.26018398 22.69110516 3.1875 26.8515625 C0.60749616 28.20606452 -1.09628703 28.40155835 -4 28.375 C-4.845625 28.38273437 -5.69125 28.39046875 -6.5625 28.3984375 C-9.49180584 27.91960866 -10.89532233 27.07544604 -13 25 C-13 24.01 -13 23.02 -13 22 C-8.98195309 21.15901344 -5.98196457 20.94595055 -2 22 C-1.34 21.01 -0.68 20.02 0 19 C-0.66 19.33 -1.32 19.66 -2 20 C-6.21416041 20.47707476 -8.32364792 20.43171409 -11.9375 18.125 C-14.82481189 13.75028501 -14.91349997 10.10386679 -14 5 C-12.30474195 2.03329841 -11.20904412 0.56422059 -8.125 -0.875 C-5.30978136 -1.0406011 -2.77529763 -0.48975841 0 0 Z M-5 5 C-7.33278733 6.89107141 -7.33278733 6.89107141 -7.1875 10.0625 C-7.33187793 12.88833136 -7.33187793 12.88833136 -6 14 C-4.33382885 14.04063832 -2.66611905 14.042721 -1 14 C-0.32326553 10.59679066 -0.32326553 10.59679066 0 7 C-0.66 6.34 -1.32 5.68 -2 5 C-2.99 5 -3.98 5 -5 5 Z " fill="#090A0A" transform="translate(162,91)"/>
<path d="M0 0 C1.99987925 0.0219767 4.00015754 0.02510263 6 0 C6.0875127 3.22899426 6.14056146 6.45768116 6.1875 9.6875 C6.21263672 10.59951172 6.23777344 11.51152344 6.26367188 12.45117188 C6.35702951 21.00895523 6.35702951 21.00895523 3 25 C-0.68914149 26.84457074 -4.97293139 26.4871454 -9 26 C-11.625 24.125 -11.625 24.125 -13 22 C-13 21.34 -13 20.68 -13 20 C-12.01 19.34 -11.02 18.68 -10 18 C-10.72896484 17.42572266 -10.72896484 17.42572266 -11.47265625 16.83984375 C-14.04664707 13.73920519 -13.4617635 10.48087336 -13.359375 6.60546875 C-13 4 -13 4 -11.1875 1.375 C-7.03496485 -1.23516495 -4.66649854 -0.82349974 0 0 Z M-6 5 C-6.33 7.31 -6.66 9.62 -7 12 C-5.02 12.99 -5.02 12.99 -3 14 C-2.01 13.34 -1.02 12.68 0 12 C0.41666667 9.5 0.41666667 9.5 0 7 C-0.66 6.34 -1.32 5.68 -2 5 C-3.32 5 -4.64 5 -6 5 Z M-1 17 C-2.98 17.66 -4.96 18.32 -7 19 C-6.67 19.66 -6.34 20.32 -6 21 C-4.35 20.67 -2.7 20.34 -1 20 C-1 19.01 -1 18.02 -1 17 Z " fill="#09090A" transform="translate(241,127)"/>
<path d="M0 0 C0.91442368 -0.00637985 1.82884735 -0.0127597 2.77098083 -0.01933289 C3.76573929 -0.02044571 4.76049774 -0.02155853 5.78540039 -0.02270508 C6.80026016 -0.02603348 7.81511993 -0.02936188 8.86073303 -0.03279114 C11.01196844 -0.03786483 13.16321174 -0.04019933 15.31445312 -0.04003906 C18.615447 -0.04222467 21.91610639 -0.0603734 25.21704102 -0.0793457 C27.30232632 -0.08227964 29.38761323 -0.08426443 31.47290039 -0.08520508 C32.46563461 -0.09239059 33.45836884 -0.09957611 34.48118591 -0.10697937 C35.39876175 -0.10390274 36.31633759 -0.10082611 37.26171875 -0.09765625 C38.07144638 -0.09908127 38.88117401 -0.10050629 39.71543884 -0.10197449 C41.69555664 0.14526367 41.69555664 0.14526367 43.69555664 2.14526367 C43.44555664 4.70776367 43.44555664 4.70776367 42.69555664 7.14526367 C40.3771468 8.30446859 39.04116533 8.27199655 36.46118164 8.2746582 C35.586875 8.27781036 34.71256836 8.28096252 33.81176758 8.28421021 C32.86591797 8.28218597 31.92006836 8.28016174 30.94555664 8.27807617 C29.49197754 8.27951126 29.49197754 8.27951126 28.0090332 8.28097534 C25.95792577 8.28165657 23.90681619 8.27980628 21.85571289 8.27563477 C18.70852841 8.27028572 15.56148666 8.27558171 12.41430664 8.28198242 C10.42472299 8.28132163 8.43513943 8.28004045 6.44555664 8.27807617 C5.49970703 8.2801004 4.55385742 8.28212463 3.5793457 8.28421021 C2.70503906 8.28105804 1.83073242 8.27790588 0.92993164 8.2746582 C-0.22684082 8.27346481 -0.22684082 8.27346481 -1.40698242 8.27224731 C-3.30444336 8.14526367 -3.30444336 8.14526367 -5.30444336 7.14526367 C-5.34698692 5.14571621 -5.34525119 3.14484731 -5.30444336 1.14526367 C-3.73474446 -0.42443523 -2.18004158 0.01027265 0 0 Z " fill="#045B31" transform="translate(71.304443359375,103.854736328125)"/>
<path d="M0 0 C3.47802116 3.02924424 3.57253048 6.55431694 4 11 C-0.62 11 -5.24 11 -10 11 C-9.01 11.99 -8.02 12.98 -7 14 C-6.195625 13.505 -6.195625 13.505 -5.375 13 C-2.4608939 11.77300796 -0.13132292 11.85766714 3 12 C2.7323244 15.30133235 2.4396165 16.62503298 -0.125 18.8125 C-3.70331387 20.29049921 -6.15576792 20.41188201 -10 20 C-13.12824432 18.67918573 -14.56971762 17.68454014 -16.375 14.8125 C-17.22588301 10.98352644 -17.19104238 7.75519731 -16 4 C-11.00928749 -2.17272337 -7.07547928 -2.71792941 0 0 Z M-8 4 C-8.33 4.66 -8.66 5.32 -9 6 C-7.35 6 -5.7 6 -4 6 C-4.33 5.34 -4.66 4.68 -5 4 C-5.99 4 -6.98 4 -8 4 Z " fill="#080809" transform="translate(187,92)"/>
<path d="M0 0 C2.63564536 3.50848895 2.26336227 7.49111855 2.1875 11.6875 C2.18685547 12.37650391 2.18621094 13.06550781 2.18554688 13.77539062 C2.14055525 18.85944475 2.14055525 18.85944475 1 20 C-0.98 20 -2.96 20 -5 20 C-5.33 15.38 -5.66 10.76 -6 6 C-7.65 5.67 -9.3 5.34 -11 5 C-11 9.95 -11 14.9 -11 20 C-13.31 20 -15.62 20 -18 20 C-18 13.07 -18 6.14 -18 -1 C-15.36 -1 -12.72 -1 -10 -1 C-5.98367013 -2.33877662 -3.90367509 -1.49049413 0 0 Z " fill="#08080A" transform="translate(210,92)"/>
<path d="M0 0 C1.98 0 3.96 0 6 0 C6.33 1.98 6.66 3.96 7 6 C8.0828125 5.6596875 8.0828125 5.6596875 9.1875 5.3125 C12.79052197 4.91216423 14.14779845 5.86084883 17 8 C18.53266582 11.06533164 18.10276471 14.26754272 18.0625 17.625 C18.05798828 18.33140625 18.05347656 19.0378125 18.04882812 19.765625 C18.03703875 21.51045275 18.01910324 23.255237 18 25 C16.02 25 14.04 25 12 25 C11.67 20.38 11.34 15.76 11 11 C9.68 11.33 8.36 11.66 7 12 C6.67 16.29 6.34 20.58 6 25 C4.02 25 2.04 25 0 25 C0 16.75 0 8.5 0 0 Z " fill="#08080A" transform="translate(169,121)"/>
<path d="M0 0 C2.45391569 3.68087353 2.22802759 6.44355588 2.125 10.6875 C2.11597656 11.38939453 2.10695312 12.09128906 2.09765625 12.81445312 C2.07413704 14.54311525 2.03826713 16.27160145 2 18 C0.89914063 17.98582031 -0.20171875 17.97164062 -1.3359375 17.95703125 C-4.86143235 17.85057187 -4.86143235 17.85057187 -7.625 18.6875 C-10 19 -10 19 -12.75 17.875 C-15 16 -15 16 -16 13.5625 C-16 10.39672243 -15.11378397 9.28288669 -13 7 C-13.66 6.67 -14.32 6.34 -15 6 C-14.25 1.25 -14.25 1.25 -12 -1 C-7.56411138 -2.5208761 -4.31624477 -1.62877161 0 0 Z M-9 4 C-9 4.66 -9 5.32 -9 6 C-7.35 6 -5.7 6 -4 6 C-4.33 5.34 -4.66 4.68 -5 4 C-6.32 4 -7.64 4 -9 4 Z M-9 11 C-8.67 11.99 -8.34 12.98 -8 14 C-6.68 13.34 -5.36 12.68 -4 12 C-4 11.34 -4 10.68 -4 10 C-6.9254644 9.7763932 -6.9254644 9.7763932 -9 11 Z " fill="#08080A" transform="translate(204,128)"/>
<path d="M0 0 C1.9375 1.1875 1.9375 1.1875 3 3 C3.1875 6.6875 3.1875 6.6875 3 10 C-0.96 10 -4.92 10 -9 10 C-8.67 10.66 -8.34 11.32 -8 12 C-6.33388095 12.042721 -4.66617115 12.04063832 -3 12 C-2.67 11.67 -2.34 11.34 -2 11 C-0.33382885 10.95936168 1.33388095 10.957279 3 11 C2.9375 13.3125 2.9375 13.3125 2 16 C-2.16310047 18.58112229 -3.87211204 19.16918319 -8.75 18.4375 C-13.5565058 16.31154551 -13.5565058 16.31154551 -15 13 C-15.51862081 9.88827515 -15.60301885 7.10361078 -15 4 C-10.31222494 -2.08143792 -7.0462309 -2.51651103 0 0 Z M-8 4 C-8.33 4.66 -8.66 5.32 -9 6 C-7.02 6 -5.04 6 -3 6 C-3.33 5.34 -3.66 4.68 -4 4 C-5.32 4 -6.64 4 -8 4 Z " fill="#09080A" transform="translate(263,128)"/>
<path d="M0 0 C1.59412284 3.18824568 1.10174735 6.62896662 1.0625 10.125 C1.05798828 10.87910156 1.05347656 11.63320312 1.04882812 12.41015625 C1.03703499 14.27347127 1.01909942 16.13674555 1 18 C-0.98 18 -2.96 18 -5 18 C-5.33 13.71 -5.66 9.42 -6 5 C-7.32 4.67 -8.64 4.34 -10 4 C-10.33 8.62 -10.66 13.24 -11 18 C-12.98 18 -14.96 18 -17 18 C-17 11.73 -17 5.46 -17 -1 C-14.69 -1 -12.38 -1 -10 -1 C-6.02972626 -2.32342458 -3.88343142 -1.36639254 0 0 Z " fill="#09090A" transform="translate(225,128)"/>
<path d="M0 0 C1.9375 1.375 1.9375 1.375 3 3 C3 4.32 3 5.64 3 7 C1.02 7 -0.96 7 -3 7 C-3.33 6.34 -3.66 5.68 -4 5 C-5.32 5 -6.64 5 -8 5 C-8 7.31 -8 9.62 -8 12 C-2.555 11.505 -2.555 11.505 3 11 C2.67 12.65 2.34 14.3 2 16 C-2.18406819 18.59412228 -3.85562176 19.19072971 -8.75 18.375 C-12.50920399 16.78456754 -14.19878159 15.60243682 -16 12 C-16.37192211 7.07203209 -16.28389467 3.83121045 -13 0 C-8.15081641 -2.53480051 -5.00102483 -1.98153814 0 0 Z " fill="#080909" transform="translate(164,128)"/>
<path d="M0 0 C1.26650391 -0.01224609 2.53300781 -0.02449219 3.83789062 -0.03710938 C5.04509766 -0.03904297 6.25230469 -0.04097656 7.49609375 -0.04296875 C9.1675647 -0.04913208 9.1675647 -0.04913208 10.87280273 -0.05541992 C13.5625 0.1875 13.5625 0.1875 15.5625 2.1875 C15.1875 4.8125 15.1875 4.8125 14.5625 7.1875 C9.82553914 8.76648695 5.02306587 8.37197895 0.0625 8.375 C-1.52498047 8.39336914 -1.52498047 8.39336914 -3.14453125 8.41210938 C-4.15902344 8.41404297 -5.17351562 8.41597656 -6.21875 8.41796875 C-7.14751953 8.42207764 -8.07628906 8.42618652 -9.03320312 8.43041992 C-11.4375 8.1875 -11.4375 8.1875 -14.4375 6.1875 C-14.6875 3.625 -14.6875 3.625 -14.4375 1.1875 C-11.73678847 -1.51321153 -3.64079036 0.00184718 0 0 Z " fill="#056136" transform="translate(80.4375,118.8125)"/>
<path d="M0 0 C1.16781006 0.00523682 2.33562012 0.01047363 3.53881836 0.01586914 C4.79887695 0.0190918 6.05893555 0.02231445 7.35717773 0.02563477 C8.6976732 0.03399136 10.03816799 0.04245632 11.37866211 0.05102539 C12.72306153 0.05603879 14.06746271 0.06060197 15.41186523 0.06469727 C18.71334151 0.07653051 22.01473014 0.09301568 25.31616211 0.11352539 C25.94116211 2.48852539 25.94116211 2.48852539 26.31616211 5.11352539 C24.31616211 7.11352539 24.31616211 7.11352539 21.62646484 7.35644531 C20.51215088 7.35233643 19.39783691 7.34822754 18.24975586 7.34399414 C17.04254883 7.34206055 15.8353418 7.34012695 14.59155273 7.33813477 C13.32504883 7.32588867 12.05854492 7.31364258 10.75366211 7.30102539 C9.48329102 7.30038086 8.21291992 7.29973633 6.90405273 7.29907227 C-2.54373736 7.25362592 -2.54373736 7.25362592 -3.68383789 6.11352539 C-3.80883789 3.61352539 -3.80883789 3.61352539 -3.68383789 1.11352539 C-2.68383789 0.11352539 -2.68383789 0.11352539 0 0 Z " fill="#046036" transform="translate(69.683837890625,89.886474609375)"/>
<path d="M0 0 C1.98 0 3.96 0 6 0 C6 8.25 6 16.5 6 25 C4.02 25 2.04 25 0 25 C0 16.75 0 8.5 0 0 Z " fill="#080809" transform="translate(268,121)"/>
<path d="M0 0 C3.96 0 7.92 0 12 0 C12 1.65 12 3.3 12 5 C8.04 5 4.08 5 0 5 C0 3.35 0 1.7 0 0 Z " fill="#09090A" transform="translate(214,98)"/>
<path d="M0 0 C0 0.66 0 1.32 0 2 C-1.45792884 2.05399736 -2.91642712 2.09279177 -4.375 2.125 C-5.18710938 2.14820312 -5.99921875 2.17140625 -6.8359375 2.1953125 C-9 2 -9 2 -11 0 C-9.54263913 -0.19491452 -8.08405407 -0.38069358 -6.625 -0.5625 C-5.81289062 -0.66691406 -5.00078125 -0.77132812 -4.1640625 -0.87890625 C-2 -1 -2 -1 0 0 Z " fill="#00572D" transform="translate(119,90)"/>
</svg>
